<svg id="Calque_1" data-name="Calque 1" xmlns="http://www.w3.org/2000/svg" viewBox="0 0 675 675"><defs><style>.cls-1{fill:#ca3e47;}</style></defs><title>logopaulparallax</title><polygon class="cls-1" points="531 72 531 0 0 0 0 531 72 531 72 72 531 72"/><circle class="cls-1" cx="409.5" cy="342" r="36"/><path class="cls-1" d="M216,191.2v531H747v-531Zm265.5,387a187.54,187.54,0,0,1-27-1.9V503.1a121.1,121.1,0,0,0,26.8,3.1,116.9,116.9,0,1,0-116.9-117V636.8a4.5,4.5,0,0,0,9,0V390.6c0-59.7,48-109.1,107.7-109.3a106.3,106.3,0,0,1,36.2,6.1,108,108,0,1,1-71.8,203.7V641.2a72,72,0,0,1-72,72h-8.1c-39.7,0-72.6-31.8-72.9-71.5V389.2a189,189,0,1,1,189,189Z" transform="translate(-72 -47.2)"/><circle class="cls-1" cx="409.5" cy="342" r="27"/></svg>